<svg width="25" height="27" viewBox="0 0 25 27" fill="none" xmlns="http://www.w3.org/2000/svg">
<path fill-rule="evenodd" clip-rule="evenodd" d="M2.455 2.63072C1.105 3.98072 0 5.52572 0 6.06472C0 9.35672 2.41 12.3497 6.887 14.6187C9.618 16.0027 12.148 18.0657 12.509 19.2027C14.195 24.5157 5.667 26.0937 3.202 20.9257C1.506 17.3687 0 17.4107 0 21.0147C0 26.0597 8.408 28.0027 13.365 24.1027C18.548 20.0267 16.3 14.9747 7.059 9.93372C4.479 8.52572 3.927 7.66172 4.183 5.43372C4.45 3.10672 4.969 2.67572 7.5 2.67572C9.652 2.67572 10.779 3.31172 11.487 4.92572C12.851 8.03472 14 7.74072 14 4.28272C14 -0.526282 6.662 -1.57728 2.455 2.63072ZM20.364 22.6687C20.018 23.5717 20.214 24.7897 20.8 25.3757C22.324 26.8997 25.21 25.5067 24.812 23.4407C24.369 21.1387 21.165 20.5827 20.364 22.6687Z" fill="black"/>
</svg>
