<svg width="455" height="465" viewBox="0 0 455 465" fill="none" xmlns="http://www.w3.org/2000/svg">
<path fill-rule="evenodd" clip-rule="evenodd" d="M0 232.5V465H227.5H455V232.5V0H227.5H0V232.5ZM50 227.5V256L52.25 255.982C55.994 255.953 71.338 254.109 73.863 253.385C76.037 252.762 76.134 252.882 75.065 254.879C73.938 256.984 73.427 257.042 58.341 256.775L42.779 256.5L42.639 227.75L42.5 199H46.25H50V227.5ZM357 225.622C357 250.349 357.119 252.147 358.666 250.872C360.185 249.621 360.277 249.846 359.702 253.417C359.355 255.571 357.873 259.784 356.407 262.779C354.099 267.496 350.068 280.563 350.017 283.49C350.008 284.034 351.199 283.186 352.665 281.605C355.188 278.885 355.402 278.829 356.665 280.557C357.399 281.561 358 282.971 358 283.691C358 286.063 359.857 285.061 363.203 280.883L366.5 276.766L367.024 281.133L367.548 285.5L371.774 281.208C376.797 276.107 377.478 276.995 372.615 282.305C368.838 286.428 366.085 287.042 365.274 283.94C364.754 281.95 364.638 281.972 361.904 284.592C359.538 286.859 358.82 287.095 357.536 286.03C356.691 285.329 356 283.91 356 282.878C356 279.285 354.005 281.042 350.468 287.75C346.838 294.636 346.729 294.453 348.566 284.545L349.3 280.589L346.046 284.295C340.701 290.382 335.465 288.249 337.348 280.75C338.664 275.51 343.139 273.148 342.921 277.809C342.872 278.85 342.648 279.02 342.338 278.25C341.461 276.077 340.193 276.886 339.05 280.347C337.774 284.215 338.576 287.232 340.766 286.799C341.599 286.635 344.057 284.402 346.229 281.838C349.485 277.994 350.601 275.469 352.589 267.443C353.915 262.09 355 257.55 355 257.355C355 257.16 354.148 257 353.107 257C350.991 257 350.002 255.145 349.996 251.168L349.993 248.5L348.05 251.686C346.981 253.439 345.191 255.363 344.072 255.962C340.436 257.907 336.286 268.671 333.128 284.347C331.483 292.512 330.362 299.779 330.637 300.495C330.911 301.212 330.656 302.095 330.068 302.458C328.492 303.432 328.775 298.74 330.863 289.25C331.861 284.712 332.506 281 332.295 281C332.085 281 330.699 282.125 329.217 283.5C325.953 286.526 323.992 286.684 323.284 283.979C322.871 282.4 322.457 282.206 321.391 283.091C319.491 284.668 317.153 283.532 315.987 280.465C314.774 277.274 313.59 277.929 310.828 283.318C309.649 285.618 308.515 287.003 308.307 286.395C308.1 285.788 306.827 285.502 305.478 285.76C303.808 286.079 302.861 285.713 302.512 284.614C302.231 283.726 301.769 282.272 301.486 281.383C301.063 280.051 300.607 280.229 298.906 282.392C297.77 283.837 296.381 284.735 295.819 284.388C294.445 283.539 295.622 278.075 297.667 275.816C299.37 273.934 303 273.315 303 274.906C303 275.405 302.099 275.577 300.998 275.289C299.428 274.879 298.672 275.54 297.498 278.351C295.333 283.531 295.698 283.949 299.006 280.079C302.05 276.519 302.574 276.759 303.201 282C303.698 286.157 306.329 284.845 309.218 279C311.013 275.367 311.947 274.232 311.968 275.656C311.993 277.318 312.461 277.692 314.01 277.287C315.576 276.878 316.261 277.451 317.108 279.881C318.47 283.786 319.628 283.817 321.797 280.006C324.07 276.011 325.372 276.205 324.581 280.422C323.626 285.513 325.594 285.772 329.888 281.122C333.01 277.74 333.946 275.665 335.396 268.92C336.356 264.451 337.359 260.228 337.625 259.536C337.948 258.694 336.712 258.091 333.89 257.712C328.427 256.979 325.039 254.438 322.25 248.98C318.439 241.521 319.684 231.47 325.088 226.066C331.225 219.929 340.004 219.767 347.008 225.66L350.106 228.267L349.803 213.632L349.5 198.997L353.25 198.998L357 199V225.622ZM116.05 224.036C119.141 226.237 122 230.76 122 233.45C122 234.771 120.071 235 108.969 235C93.902 235 93.961 234.96 95.809 243.918C96.69 248.189 97.783 250.263 100.465 252.75C107.264 259.054 117.901 256.267 121.695 247.189C122.477 245.316 123.364 244.031 123.666 244.333C124.602 245.269 119.645 253.216 116.824 255.301C115.353 256.389 111.918 257.494 109.191 257.756C100.338 258.606 93.193 254.837 89.896 247.579C85.231 237.307 90.332 225.301 100.791 221.933C104.95 220.594 112.72 221.665 116.05 224.036ZM167.256 224.178C179.511 230.883 178.517 250.228 165.616 256.087C157.314 259.857 145.031 257.668 140.228 251.563C131.828 240.884 136.586 226.212 149.843 221.916C154.088 220.541 162.636 221.651 167.256 224.178ZM215.36 222.377C219.896 224.272 220.74 227.181 221.411 243.25L221.985 257H218.492H215V243.047C215 234.649 214.541 228.088 213.848 226.566C211.734 221.926 206.642 221.979 200.827 226.702L197.5 229.404L200 226.575C202.624 223.605 207.267 221.105 210.282 221.039C211.262 221.018 213.547 221.62 215.36 222.377ZM264.842 223.731C268.151 226.202 268.832 229.553 269.062 244.5L269.247 256.5L266.123 256.813C263.237 257.103 263 256.894 263 254.063C263 250.624 261.581 250.046 260.07 252.87C258.348 256.086 252.304 258.284 246.668 257.742C240.458 257.145 237 253.792 237 248.367C237 242.904 240.966 239.621 250.047 237.566C259.714 235.378 262.004 233.874 261.985 229.727C261.944 221.203 253.506 219.831 245.988 227.127C241.617 231.37 241.836 231.258 239.582 230.393C236.953 229.384 237.786 227.489 241.863 225.197C249.827 220.721 259.946 220.076 264.842 223.731ZM397.5 222.104C402.555 223.485 407.545 227.22 409.572 231.14C411.553 234.97 411.604 243.937 409.666 247.662C401.756 262.869 376.206 260.791 372.132 244.609C368.365 229.648 381.726 217.795 397.5 222.104ZM102.315 223.441C99.194 224.82 96 229.377 96 232.45C96 233.741 97.587 234 105.5 234H115V231.056C115 227.542 111.493 223.282 108 222.554C106.625 222.267 104.067 222.667 102.315 223.441ZM152.619 223.059C146.088 224.959 142.307 232.462 143.204 241.743C144.095 250.973 149.124 257 155.933 257C163.921 257 168.94 250.266 168.976 239.5C169.016 227.8 161.678 220.424 152.619 223.059ZM308.5 224.5C308.5 226.088 307.779 226.534 305 226.664C303.075 226.754 300.728 226.866 299.785 226.914C298.841 226.961 296.479 228.397 294.535 230.104C291.047 233.166 291 233.312 291 241.135C291 247.344 291.333 249.191 292.537 249.653C294.863 250.545 297 255.425 297 259.845C297 265.336 293.538 275.974 289.522 282.828C285.347 289.951 277.091 297.832 272.931 298.664C270.246 299.201 269.888 299.633 270.308 301.829C270.875 304.798 270.216 307 268.761 307C268.135 307 267.955 305.368 268.299 302.805C268.609 300.498 268.427 297.798 267.896 296.805C267.195 295.496 267.286 295 268.227 295C269.115 295 270.751 288.767 273.413 275.25C275.552 264.387 277.529 254.882 277.806 254.126C278.169 253.134 277.559 253.243 275.614 254.517C271.965 256.908 268.016 263.911 267.039 269.723L266.235 274.5L266.14 270.5C266.008 264.979 268.878 259.289 274.364 254.195C276.914 251.827 279.007 249.352 279.015 248.695C279.026 247.887 279.309 247.939 279.888 248.853C280.576 249.939 281.192 249.967 283.004 248.998C285.204 247.821 285.25 247.471 284.784 235.395L284.307 223H287.953C291.53 223 291.591 223.065 291.19 226.5C290.723 230.5 291.846 230.948 294.595 227.859C296.995 225.161 303.864 221.926 306.5 222.252C307.751 222.407 308.5 223.249 308.5 224.5ZM387.313 223.092C383.157 224.308 380.48 227.831 378.989 234.047C376.838 243.012 379.929 252.551 386.03 255.777C389.295 257.503 396.53 256.728 399.179 254.368C402.434 251.469 404.125 246.356 404.125 239.415C404.125 226.878 397.236 220.19 387.313 223.092ZM197.19 226.75C197.36 228.813 197.363 236.463 197.196 243.75L196.892 257H193.446H190V240V223H193.44C196.692 223 196.896 223.204 197.19 226.75ZM333.42 224.145C327.914 226.816 325.214 240.036 328.447 248.499C331.447 256.355 337.093 258.356 340.428 252.744L342.355 249.5L342.928 252.429C343.489 255.302 343.537 255.322 345.389 253.469C348.57 250.287 350 245.403 350 237.723C350 229.657 349.341 228.27 344 225.091C340.233 222.849 336.735 222.536 333.42 224.145ZM259.5 236.106C258.4 236.558 255.536 237.425 253.135 238.033C247.057 239.573 244 242.88 244 247.916C244 255.188 250.039 258.103 256.696 254.044C260.473 251.741 262.302 246.694 261.824 239.893C261.531 235.729 261.307 235.364 259.5 236.106ZM281.427 251.028C279.624 251.704 278.809 254.543 275.177 272.82C272.88 284.378 271 294.772 271 295.918C271 298.667 272.606 298.545 277.065 295.455C284.388 290.38 291.287 279.587 294.13 268.758C296.309 260.458 296.435 257.41 294.735 254.079C292.867 250.417 290.755 250.156 291.164 253.638C291.477 256.306 291.263 256.5 288 256.5C284.853 256.5 284.45 256.184 284 253.376C283.572 250.703 283.2 250.363 281.427 251.028Z" fill="black"/>
</svg>
