<svg width="118" height="106" viewBox="0 0 118 106" fill="none" xmlns="http://www.w3.org/2000/svg">
<path fill-rule="evenodd" clip-rule="evenodd" d="M43.0169 1.30101C40.3978 3.67844 42.5231 6.83724 46.7415 6.83724C48.5187 6.83724 50.2481 7.24004 50.5829 7.73269C51.5872 9.2076 48.0694 11.156 45.5015 10.5462C43.8633 10.1576 43.4718 10.306 44.2559 11.0177C45.9185 12.5269 50.2359 11.6739 51.6594 9.55387C52.6381 8.09612 52.4502 7.43589 50.7263 6.27292C49.5386 5.47337 47.4121 4.81819 45.9997 4.81819C44.5461 4.81819 43.4318 4.20743 43.4318 3.41193C43.4318 1.38884 46.7538 0.523678 48.7578 2.02484C50.1703 3.08282 50.3716 3.04143 49.92 1.78962C49.1471 -0.355617 45.1534 -0.638284 43.0169 1.30101ZM66.4688 4.88684C64.3268 7.90229 62.8121 10.5967 63.1035 10.8733C63.3937 11.1509 64.3057 10.5412 65.1276 9.52055C66.9837 7.21581 70.4114 8.00728 72.1897 11.1499C73.2307 12.9913 73.3386 12.3926 72.7803 7.84676C71.697 -0.984551 70.903 -1.35707 66.4688 4.88684ZM71.2355 5.38252C71.2355 6.18307 70.2301 6.83724 69.0023 6.83724C67.0716 6.83724 66.9504 6.57174 68.1126 4.88381C69.5662 2.77088 71.2355 3.03739 71.2355 5.38252ZM33.4224 4.62335C33.4224 6.42334 38.2091 14.9134 39.2234 14.9134C39.7239 14.9134 38.813 12.5289 37.2004 9.61343C33.8739 3.60273 33.4224 3.00711 33.4224 4.62335ZM79.6478 8.72808L76.7896 13.8484L80.2328 15.4646C82.1268 16.354 83.9629 16.8204 84.3144 16.5024C84.6647 16.1834 84.4934 15.9088 83.9329 15.8907C83.3713 15.8735 82.0033 15.2335 80.8923 14.4682C78.9505 13.1316 78.9638 12.9156 81.2482 8.85023C82.555 6.5253 83.3724 4.39419 83.0654 4.11556C82.7585 3.83593 81.2204 5.91252 79.6478 8.72808ZM92.8068 13.3083C92.4764 14.0907 93.0103 16.143 93.9934 17.8693C95.5994 20.6879 95.606 21.0675 94.059 21.6066C91.8826 22.3647 88.743 20.0771 89.5003 18.2852C89.8151 17.5412 89.5871 16.9325 88.9954 16.9325C87.5952 16.9325 87.6253 18.5881 89.0688 21.0372C90.4123 23.3147 95.4792 23.6822 96.3745 21.5662C96.7048 20.7838 96.171 18.7315 95.1879 17.0052C93.622 14.2562 93.6053 13.7959 95.0544 13.2911C97.3855 12.4795 99.017 13.6465 99.1682 16.2349C99.2717 18.0157 99.3985 18.0924 99.8166 16.6316C100.864 12.965 94.2737 9.83956 92.8068 13.3083ZM14.8562 16.4257L11.7355 18.9465L16.7402 22.9654L21.7448 26.9843L24.2472 24.4262C27.4491 21.1523 27.4012 19.4512 24.0192 16.3823C20.5771 13.2568 18.7665 13.2659 14.8562 16.4257ZM23.1906 17.1344C25.0068 18.7829 24.8733 22.4798 22.9449 23.9325C21.6848 24.8825 20.6238 24.5221 17.7 22.1507C14.5337 19.5825 14.2378 18.9576 15.5246 17.5513C17.2762 15.6342 21.2967 15.4152 23.1906 17.1344ZM100.399 24.5614C97.6757 26.2928 97.0496 30.875 99.2617 32.883C101.32 34.7516 106.577 34.3185 109.049 32.0753C111.726 29.6454 111.83 28.1988 109.541 25.2338C107.517 22.61 103.887 22.3435 100.399 24.5614ZM107.714 25.2106C109.986 27.273 109.248 30.6277 106.196 32.1107C100.693 34.7839 96.3567 28.8479 101.448 25.6114C104.479 23.6842 105.93 23.5913 107.714 25.2106ZM6.80312 27.7011C1.81624 30.872 5.37734 38.1325 11.9201 38.1325C14.5504 38.1325 17.8523 34.7233 17.8523 32.0067C17.8523 28.1796 10.5355 25.3287 6.80312 27.7011ZM14.5415 30.0795C16.3287 31.7018 16.5489 32.5327 15.6147 34.1176C13.6262 37.4904 5.61868 35.9883 5.61868 32.2419C5.61868 27.9858 10.8402 26.7198 14.5415 30.0795ZM1.9953 42.2968C-0.771731 43.702 -0.623815 49.844 2.20883 51.221C8.34789 54.2031 15.0986 49.8833 12.4729 44.653C10.8358 41.3902 6.67745 41.2347 6.85984 44.442C6.96216 46.2369 7.09784 46.3308 7.50933 44.8912C8.25003 42.2958 10.5588 43.3497 10.9681 46.4711C11.4141 49.8712 8.10656 51.6813 4.02275 50.272C0.638475 49.104 0.0779514 44.8448 3.10745 43.3063C4.17289 42.7652 4.79346 42.0949 4.48762 41.8172C4.18178 41.5396 3.06074 41.7557 1.9953 42.2968ZM104.6 45.3102C104.6 45.8039 105.293 46.2087 106.138 46.2087C108.99 46.2087 109.262 50.5799 106.541 52.6525L104.044 54.5534L106.824 53.7852C112.054 52.3395 118.212 49.0747 117.244 48.261C115.648 46.9184 104.6 44.34 104.6 45.3102ZM115.49 48.7214C115.311 48.8546 114.039 49.4957 112.663 50.1458C110.49 51.1715 110.161 51.0756 110.161 49.4129C110.161 47.9067 110.764 47.6028 112.988 47.9885C114.543 48.259 115.669 48.5881 115.49 48.7214ZM5.12155 63.2848C4.76344 63.8107 4.94472 64.5063 5.52415 64.8314C6.10358 65.1564 6.86985 64.9919 7.22796 64.4659C7.58607 63.9399 7.40479 63.2444 6.82536 62.9193C6.24593 62.5943 5.47966 62.7588 5.12155 63.2848ZM109.049 65.4492C109.049 66.0367 109.549 66.2376 110.161 65.8944C110.772 65.5511 111.273 65.0706 111.273 64.8253C111.273 64.58 110.772 64.3801 110.161 64.3801C109.549 64.3801 109.049 64.8616 109.049 65.4492ZM12.4161 75.5192C7.71619 78.6093 7.59163 79.2383 10.9648 82.8039C14.2345 86.2605 22.3009 83.6852 22.3009 79.1858C22.3009 76.8376 19.4727 72.4563 17.9558 72.4563C17.4709 72.4563 14.9774 73.8343 12.4161 75.5192ZM95.7984 76.1087C93.0992 79.2241 93.1615 79.3584 99.0103 83.0381C103.3 85.7366 107.282 85.8194 103.225 83.1259C100.804 81.5198 101.821 80.5325 105.898 80.5325C107.631 80.5325 109.049 80.0782 109.049 79.523C109.049 78.9677 108.032 78.5134 106.79 78.5134C105.546 78.5134 104.207 77.7189 103.813 76.7468C102.191 72.7591 98.9269 72.4987 95.7984 76.1087ZM19.8775 77.8169C20.4025 80.2892 18.0981 82.5515 15.0553 82.5515C11.3518 82.5515 10.5199 79.4896 13.6273 77.301C16.7035 75.1346 19.3548 75.3536 19.8775 77.8169ZM101.635 76.9255C102.482 78.9314 99.3384 81.2079 97.7325 79.7501C96.1966 78.3559 97.3465 75.4849 99.4418 75.4849C100.313 75.4849 101.299 76.133 101.635 76.9255ZM23.0283 86.9702L19.0601 91.3667L21.5858 93.521C22.976 94.7062 24.8311 95.6602 25.7085 95.642C26.754 95.6198 26.3803 94.9081 24.6253 93.5826C21.3467 91.1042 22.8492 88.7328 26.5571 90.5338C30.1505 92.2803 30.8912 91.7584 27.9618 89.5445C24.5964 87.0015 26.2179 84.7109 30.0615 86.5775C33.8083 88.3977 33.9574 87.0722 30.2739 84.6917L26.9975 82.5737L23.0283 86.9702ZM87.0069 84.5696C84.1831 86.7067 84.3544 87.3034 89.3024 92.57L92.3563 95.8197L95.8907 93.5341C97.8815 92.248 98.8391 91.0719 98.0828 90.8427C97.3443 90.6196 95.9853 91.0053 95.0622 91.7008C92.234 93.8309 90.3622 91.1769 92.8991 88.6329C94.019 87.5093 94.3871 86.5896 93.7165 86.5896C93.0459 86.5896 92.1884 87.0439 91.8103 87.5991C90.7382 89.173 87.9177 88.7843 87.9177 87.0631C87.9177 86.2121 88.6684 85.255 89.586 84.936C91.2876 84.3424 91.9326 82.5243 90.4201 82.5848C89.9619 82.604 88.426 83.4964 87.0069 84.5696ZM79.6422 89.5213C79.2508 90.0977 79.7134 91.9441 80.6721 93.627C82.7896 97.3441 81.9055 97.4592 76.5616 94.1641C74.3139 92.777 72.2008 92.0461 71.8661 92.5377C70.9997 93.8107 75.7642 103.825 76.9264 103.174C77.4558 102.877 77.1677 101.068 76.2869 99.1552C75.4061 97.2411 74.9367 95.6753 75.2437 95.6753C75.5506 95.6753 77.6103 96.7909 79.8213 98.1547C82.0323 99.5176 84.2421 100.408 84.7337 100.133C85.2241 99.8578 84.598 97.2653 83.3424 94.3731C80.6932 88.2705 80.5876 88.1332 79.6422 89.5213ZM36.2818 91.2042C34.0096 93.2676 34.0219 93.3221 37.5085 96.2548C39.874 98.2446 40.1987 99.0088 39.0977 99.9921C38.0022 100.969 37.2593 100.724 35.5399 98.8129C33.1766 96.1872 31.8187 96.3659 32.9954 99.1491C33.9629 101.44 37.9233 102.743 40.3734 101.578C42.9947 100.33 42.839 97.0079 40.0953 95.6753C37.5251 94.4266 37.1025 91.6372 39.4836 91.6372C40.3711 91.6372 41.5845 92.4287 42.1806 93.3958C42.7767 94.363 43.6331 94.8193 44.0835 94.4114C45.1044 93.4837 41.3654 89.6182 39.4458 89.6182C38.6673 89.6182 37.2438 90.3319 36.2818 91.2042ZM49.7265 93.3948C48.4031 95.3392 47.609 104.761 48.769 104.761C49.4151 104.761 50.2915 102.241 50.7152 99.1622C51.447 93.8431 51.04 91.4656 49.7265 93.3948ZM57.3081 96.0731C53.5612 101.264 59.0219 107.467 65.1187 104.945C68.6342 103.491 69.1113 98.7039 65.7404 98.7039C64.5526 98.7039 63.2725 99.1582 62.8944 99.7134C62.5162 100.269 63.0289 100.723 64.0332 100.723C66.6901 100.723 65.3811 103.188 62.5218 103.57C59.8126 103.932 57.8274 100.652 58.7716 97.3744C59.2387 95.7541 60.0006 95.5623 63.7808 96.1104C67.7044 96.6808 68.0681 96.5728 66.8203 95.2069C64.6015 92.78 59.3399 93.2595 57.3081 96.0731Z" fill="black"/>
</svg>
